<svg width="448" height="448"
xmlns="http://www.w3.org/2000/svg">
<style>
    text {
        font-family:Consolas;
    }
</style>       
<line style="stroke-width: 2;" stroke="black" x1="32" y1="32" 
    x2="160" y2="32" />
<line style="stroke-width: 4;" stroke="blue" x1="160" y1="32"
    x2="288" y2="32" />
<line style="stroke-width: 4;" stroke="blue" x1="288" y1="32"
    x2="416" y2="32" />
<line style="stroke-width: 2;" stroke="black" x1="32" y1="160" 
    x2="160" y2="160" />
<line style="stroke-width: 4;" stroke="blue" x1="160" y1="160"
    x2="288" y2="160" />
<line style="stroke-width: 4;" stroke="blue" x1="288" y1="160"
    x2="416" y2="160" />
<line style="stroke-width: 4;" stroke="blue" x1="32" y1="288"
    x2="160" y2="288" />
<line style="stroke-width: 4;" stroke="blue" x1="160" y1="288"
    x2="288" y2="288" />
<line style="stroke-width: 2;" stroke="black" x1="288" y1="288" 
    x2="416" y2="288" />
<line style="stroke-width: 4;" stroke="blue" x1="32" y1="416"
    x2="160" y2="416" />
<line style="stroke-width: 4;" stroke="blue" x1="160" y1="416"
    x2="288" y2="416" />
<line style="stroke-width: 2;" stroke="black" x1="288" y1="416" 
    x2="416" y2="416" />
<line style="stroke-width: 4;" stroke="blue" x1="32" y1="32"
    x2="32" y2="160" />
<line style="stroke-width: 4;" stroke="blue" x1="32" y1="160"
    x2="32" y2="288" />
<line style="stroke-width: 2;" stroke="black" x1="32" y1="288" 
    x2="32" y2="416" />
<line style="stroke-width: 2;" stroke="black" x1="160" y1="32" 
    x2="160" y2="160" />
<line style="stroke-width: 2;" stroke="black" x1="160" y1="160" 
    x2="160" y2="288" />
<line style="stroke-width: 2;" stroke="black" x1="160" y1="288" 
    x2="160" y2="416" />
<line style="stroke-width: 4;" stroke="blue" x1="288" y1="32"
    x2="288" y2="160" />
<line style="stroke-width: 4;" stroke="blue" x1="288" y1="160"
    x2="288" y2="288" />
<line style="stroke-width: 4;" stroke="blue" x1="288" y1="288"
    x2="288" y2="416" />
<line style="stroke-width: 2;" stroke="black" x1="416" y1="32" 
    x2="416" y2="160" />
<line style="stroke-width: 4;" stroke="blue" x1="416" y1="160"
    x2="416" y2="288" />
<line style="stroke-width: 4;" stroke="blue" x1="416" y1="288"
    x2="416" y2="416" />
<circle cx="32" cy="32" r="16" fill="white" stroke="black" stroke-width="2" />
<text text-anchor="middle" x="32" y="42" font-size="32">0</text>
<circle cx="160" cy="32" r="16" fill="white" stroke="black" stroke-width="2" />
<text text-anchor="middle" x="160" y="42" font-size="32">1</text>
<circle cx="288" cy="32" r="16" fill="white" stroke="black" stroke-width="2" />
<text text-anchor="middle" x="288" y="42" font-size="32">2</text>
<circle cx="416" cy="32" r="16" fill="white" stroke="black" stroke-width="2" />
<text text-anchor="middle" x="416" y="42" font-size="32">3</text>
<circle cx="32" cy="160" r="16" fill="white" stroke="black" stroke-width="2" />
<text text-anchor="middle" x="32" y="170" font-size="32">4</text>
<circle cx="160" cy="160" r="16" fill="white" stroke="black" stroke-width="2" />
<text text-anchor="middle" x="160" y="170" font-size="32">5</text>
<circle cx="288" cy="160" r="16" fill="white" stroke="black" stroke-width="2" />
<text text-anchor="middle" x="288" y="170" font-size="32">6</text>
<circle cx="416" cy="160" r="16" fill="white" stroke="black" stroke-width="2" />
<text text-anchor="middle" x="416" y="170" font-size="32">7</text>
<circle cx="32" cy="288" r="16" fill="white" stroke="black" stroke-width="2" />
<text text-anchor="middle" x="32" y="298" font-size="32">8</text>
<circle cx="160" cy="288" r="16" fill="white" stroke="black" stroke-width="2" />
<text text-anchor="middle" x="160" y="298" font-size="32">9</text>
<circle cx="288" cy="288" r="16" fill="lightblue" stroke="black" stroke-width="2" />
<text text-anchor="middle" x="288" y="296" font-size="26">10</text>
<circle cx="416" cy="288" r="16" fill="white" stroke="black" stroke-width="2" />
<text text-anchor="middle" x="416" y="296" font-size="26">11</text>
<circle cx="32" cy="416" r="16" fill="white" stroke="black" stroke-width="2" />
<text text-anchor="middle" x="32" y="424" font-size="26">12</text>
<circle cx="160" cy="416" r="16" fill="white" stroke="black" stroke-width="2" />
<text text-anchor="middle" x="160" y="424" font-size="26">13</text>
<circle cx="288" cy="416" r="16" fill="white" stroke="black" stroke-width="2" />
<text text-anchor="middle" x="288" y="424" font-size="26">14</text>
<circle cx="416" cy="416" r="16" fill="white" stroke="black" stroke-width="2" />
<text text-anchor="middle" x="416" y="424" font-size="26">15</text>
</svg>