<svg width="400" height="310"
xmlns="http://www.w3.org/2000/svg">
<defs>
    <marker
      id="triangle"
      viewBox="0 0 8 8"
      refX="1"
      refY="4"
      markerUnits="strokeWidth"
      markerWidth="8"
      markerHeight="4"
      orient="auto">
      <path d="M 0 0 L 8 4 L 0 8 z" fill="black" />
    </marker>            
</defs>
<style>
    text {
        font-family:Consolas;
    }
</style>
<g transform="scale(0.7)">
<line style="stroke-width: 2;" stroke="black" x1="32" y1="32" 
    x2="136" y2="32" marker-end="url(#triangle)" />
<line style="stroke-width: 2;" stroke="black" x1="32" y1="160" 
    x2="79" y2="112" marker-end="url(#triangle)" />
<line style="stroke-width: 2;" stroke="black" x1="32" y1="32" 
    x2="79" y2="79" marker-end="url(#triangle)" />
<line style="stroke-width: 2;" stroke="black" x1="32" y1="288" 
    x2="138" y2="234" marker-end="url(#triangle)" />
<line style="stroke-width: 2;" stroke="black" x1="160" y1="32" 
    x2="392" y2="90" marker-end="url(#triangle)" />
<line style="stroke-width: 2;" stroke="black" x1="96" y1="96" 
    x2="200" y2="96" marker-end="url(#triangle)" />
<line style="stroke-width: 2;" stroke="black" x1="160" y1="32" 
    x2="207" y2="79" marker-end="url(#triangle)" />
<line style="stroke-width: 2;" stroke="black" x1="224" y1="96" 
    x2="271" y2="143" marker-end="url(#triangle)" />
<line style="stroke-width: 2;" stroke="black" x1="288" y1="160" 
    x2="394" y2="106" marker-end="url(#triangle)" />
<line style="stroke-width: 2;" stroke="black" x1="160" y1="224" 
    x2="213" y2="117" marker-end="url(#triangle)" />
<line style="stroke-width: 2;" stroke="black" x1="160" y1="224" 
    x2="266" y2="170" marker-end="url(#triangle)" />
<line style="stroke-width: 2;" stroke="black" x1="32" y1="416" 
    x2="138" y2="362" marker-end="url(#triangle)" />
<line style="stroke-width: 2;" stroke="black" x1="32" y1="288" 
    x2="138" y2="341" marker-end="url(#triangle)" />
<line style="stroke-width: 2;" stroke="black" x1="32" y1="416" 
    x2="264" y2="416" marker-end="url(#triangle)" />
<line style="stroke-width: 2;" stroke="black" x1="288" y1="416" 
    x2="394" y2="362" marker-end="url(#triangle)" />
<line style="stroke-width: 2;" stroke="black" x1="288" y1="416" 
    x2="288" y2="312" marker-end="url(#triangle)" />
<line style="stroke-width: 2;" stroke="black" x1="160" y1="352" 
    x2="266" y2="298" marker-end="url(#triangle)" />
<line style="stroke-width: 2;" stroke="black" x1="288" y1="288" 
    x2="394" y2="341" marker-end="url(#triangle)" />
<line style="stroke-width: 2;" stroke="black" x1="288" y1="288" 
    x2="394" y2="234" marker-end="url(#triangle)" />
<line style="stroke-width: 2;" stroke="black" x1="288" y1="160" 
    x2="394" y2="213" marker-end="url(#triangle)" />
<line style="stroke-width: 2;" stroke="black" x1="160" y1="224" 
    x2="266" y2="277" marker-end="url(#triangle)" />
<circle cx="32" cy="32" r="16" fill="white" stroke="black" stroke-width="2" />
<text text-anchor="middle" x="32" y="42" font-size="32">A</text>
<circle cx="32" cy="160" r="16" fill="white" stroke="black" stroke-width="2" />
<text text-anchor="middle" x="32" y="170" font-size="32">B</text>
<circle cx="32" cy="288" r="16" fill="white" stroke="black" stroke-width="2" />
<text text-anchor="middle" x="32" y="298" font-size="32">C</text>
<circle cx="32" cy="416" r="16" fill="white" stroke="black" stroke-width="2" />
<text text-anchor="middle" x="32" y="426" font-size="32">D</text>
<circle cx="416" cy="96" r="16" fill="white" stroke="black" stroke-width="2" />
<text text-anchor="middle" x="416" y="106" font-size="32">E</text>
<circle cx="416" cy="224" r="16" fill="white" stroke="black" stroke-width="2" />
<text text-anchor="middle" x="416" y="234" font-size="32">F</text>
<circle cx="416" cy="352" r="16" fill="white" stroke="black" stroke-width="2" />
<text text-anchor="middle" x="416" y="362" font-size="32">G</text>
<circle cx="160" cy="32" r="16" fill="white" stroke="black" stroke-width="2" />
<text text-anchor="middle" x="160" y="42" font-size="32">O</text>
<circle cx="96" cy="96" r="16" fill="white" stroke="black" stroke-width="2" />
<text text-anchor="middle" x="96" y="106" font-size="32">I</text>
<circle cx="224" cy="96" r="16" fill="white" stroke="black" stroke-width="2" />
<text text-anchor="middle" x="224" y="106" font-size="32">J</text>
<circle cx="288" cy="160" r="16" fill="white" stroke="black" stroke-width="2" />
<text text-anchor="middle" x="288" y="170" font-size="32">K</text>
<circle cx="160" cy="352" r="16" fill="white" stroke="black" stroke-width="2" />
<text text-anchor="middle" x="160" y="362" font-size="32">Q</text>
<circle cx="288" cy="416" r="16" fill="white" stroke="black" stroke-width="2" />
<text text-anchor="middle" x="288" y="426" font-size="32">P</text>
<circle cx="160" cy="224" r="16" fill="white" stroke="black" stroke-width="2" />
<text text-anchor="middle" x="160" y="234" font-size="32">N</text>
<circle cx="288" cy="288" r="16" fill="white" stroke="black" stroke-width="2" />
<text text-anchor="middle" x="288" y="298" font-size="32">R</text>
</g>
</svg>