<svg width="256" height="160"
xmlns="http://www.w3.org/2000/svg">
<defs>
    <marker
      id="triangle"
      viewBox="0 0 4 4"
      refX="1"
      refY="2"
      markerUnits="strokeWidth"
      markerWidth="4"
      markerHeight="2"
      orient="auto">
      <path d="M 0 0 L 4 2 L 0 4 z" fill="black" />
    </marker>            
</defs>
<style>
    text {
        font-family:Consolas;
    }
</style>       
<line style="stroke-width: 2;" stroke="black" x1="128" y1="16" 
    x2="58" y2="57" marker-end="url(#triangle)" />
<line style="stroke-width: 2;" stroke="black" x1="128" y1="16" 
    x2="197" y2="57" marker-end="url(#triangle)" />
<line style="stroke-width: 2;" stroke="black" x1="48" y1="64" 
    x2="24" y2="87" marker-end="url(#triangle)" />
<line style="stroke-width: 2;" stroke="black" x1="48" y1="64" 
    x2="71" y2="87" marker-end="url(#triangle)" />
<line style="stroke-width: 2;" stroke="black" x1="208" y1="64" 
    x2="184" y2="87" marker-end="url(#triangle)" />
<line style="stroke-width: 2;" stroke="black" x1="208" y1="64" 
    x2="231" y2="87" marker-end="url(#triangle)" />
<line style="stroke-width: 2;" stroke="black" x1="176" y1="96" 
    x2="163" y2="132" marker-end="url(#triangle)" />
<line style="stroke-width: 2;" stroke="black" x1="176" y1="96" 
    x2="188" y2="132" marker-end="url(#triangle)" />
<circle cx="128" cy="16" r="8" fill="white" stroke="black" stroke-width="2" />
<text text-anchor="middle" x="128" y="21" font-size="16">A</text>
<circle cx="48" cy="64" r="8" fill="white" stroke="black" stroke-width="2" />
<text text-anchor="middle" x="48" y="69" font-size="16">B</text>
<circle cx="16" cy="96" r="8" fill="white" stroke="black" stroke-width="2" />
<text text-anchor="middle" x="16" y="101" font-size="16">C</text>
<circle cx="208" cy="64" r="8" fill="white" stroke="black" stroke-width="2" />
<text text-anchor="middle" x="208" y="69" font-size="16">D</text>
<circle cx="80" cy="96" r="8" fill="white" stroke="black" stroke-width="2" />
<text text-anchor="middle" x="80" y="101" font-size="16">E</text>
<circle cx="240" cy="96" r="8" fill="white" stroke="black" stroke-width="2" />
<text text-anchor="middle" x="240" y="101" font-size="16">F</text>
<circle cx="176" cy="96" r="8" fill="white" stroke="black" stroke-width="2" />
<text text-anchor="middle" x="176" y="101" font-size="16">G</text>
<circle cx="160" cy="144" r="8" fill="white" stroke="black" stroke-width="2" />
<text text-anchor="middle" x="160" y="149" font-size="16">H</text>
<circle cx="192" cy="144" r="8" fill="white" stroke="black" stroke-width="2" />
<text text-anchor="middle" x="192" y="149" font-size="16">I</text>
</svg>