<svg width="320" height="192"
xmlns="http://www.w3.org/2000/svg">
<g transform="scale(2)">
<line style="stroke-width: 2;" stroke="black" x1="16" y1="16"
    x2="16" y2="48" />
<line style="stroke-width: 2;" stroke="black" x1="16" y1="48" 
    x2="16" y2="80" />
<line style="stroke-width: 2;" stroke="black" x1="16" y1="48" 
    x2="48" y2="48" />
<line style="stroke-width: 2;" stroke="black" x1="16" y1="16" 
    x2="80" y2="16" />
<line style="stroke-width: 2;" stroke="black" x1="80" y1="16" 
    x2="80" y2="48" />
<line style="stroke-width: 2;" stroke="black" x1="80" y1="16" 
    x2="112" y2="16" />
<line style="stroke-width: 2;" stroke="black" x1="112" y1="16" 
    x2="112" y2="48" />
<line style="stroke-width: 2;" stroke="black" x1="112" y1="16" 
    x2="144" y2="16" />
<circle cx="16" cy="48" r="8" fill="white" stroke="black" stroke-width="2" />
<circle cx="16" cy="80" r="8" fill="white" stroke="black" stroke-width="2" />
<circle cx="48" cy="48" r="8" fill="white" stroke="black" stroke-width="2" />
<circle cx="16" cy="16" r="8" fill="white" stroke="black" stroke-width="2" />
<circle cx="80" cy="16" r="8" fill="white" stroke="black" stroke-width="2" />
<circle cx="80" cy="48" r="8" fill="white" stroke="black" stroke-width="2" />
<circle cx="112" cy="16" r="8" fill="white" stroke="black" stroke-width="2" />
<circle cx="112" cy="48" r="8" fill="white" stroke="black" stroke-width="2" />
<circle cx="144" cy="16" r="8" fill="white" stroke="black" stroke-width="2" />
</g>
</svg>